# xmcd
#
# Track frame offsets:
#	150
#	8830
#	22667
#	37580
#	50738
#	66951
#	77962
#	92585
#	111164
#	122580
#	139243
#	149700
#	159662
#	172664
#
# Disc length: 2465 seconds
#
# Revision: 1
# Processed by: cddbd v1.5.2PL0 Copyright (c) Steve Scherf et al.
# Submitted via: audiograbber 1.83.01
#
DISCID=b1099f0e
DTITLE=Mary Schneider - The Great Mary Schneider [Disc 2]
DYEAR=2005
DGENRE=Country
TTITLE0=I Love To Yodel
TTITLE1=Lonely Goatherd (with daughter Melinda Schneider, Danielle Gaha and Breen
TTITLE1=Machine)
TTITLE2=Skater's Waltz
TTITLE3=Dwarf's Yodel Song
TTITLE4=In A Monastery Garden
TTITLE5=Arizona Yodeller
TTITLE6=Yodelling Marchtime (Medley): Washington Post/Sempre Fidelis/Liberty Be
TTITLE6=ll/Blaze Away
TTITLE7=I Just Wanna Yodel Like You (with 8 year old daughter Melinda Schneider
TTITLE7=)
TTITLE8=Yiddisher Yodeller
TTITLE9=Rockabye Yodel (with 11 year old daughter Melinda Schneider)
TTITLE10=Clarinet Polka Yodel (with daughter Melinda Schneider)
TTITLE11=He Taught Me To Yodel
TTITLE12=My City Of Sydney
TTITLE13=Fiddle Faddle Yodel
EXTD=YEAR: 2005
EXTT0=
EXTT1=
EXTT2=
EXTT3=
EXTT4=
EXTT5=
EXTT6=
EXTT7=
EXTT8=
EXTT9=
EXTT10=
EXTT11=
EXTT12=
EXTT13=
PLAYORDER=
